<?xml version="1.0" standalone="no"?>
<!DOCTYPE svg PUBLIC "-//W3C//DTD SVG 20010904//EN"
 "http://www.w3.org/TR/2001/REC-SVG-20010904/DTD/svg10.dtd">
<svg version="1.0" xmlns="http://www.w3.org/2000/svg"
 width="295.000000pt" height="295.000000pt" viewBox="0 0 295.000000 295.000000"
 preserveAspectRatio="xMidYMid meet">
<metadata>
Created by potrace 1.14, written by Peter Selinger 2001-2017
</metadata>
<g transform="translate(0.000000,295.000000) scale(0.100000,-0.100000)"
fill="#000000" stroke="none">
<path d="M1475 2908 c-35 -21 -43 -22 -65 -11 -53 27 -127 8 -163 -41 -11 -15
-19 -16 -48 -9 -52 14 -93 -1 -135 -51 -24 -30 -42 -42 -54 -39 -24 6 -57 -12
-65 -37 -4 -12 -15 -20 -29 -20 -26 0 -79 -37 -71 -50 3 -5 1 -11 -5 -15 -6
-3 -8 -17 -6 -31 4 -19 0 -24 -16 -24 -31 0 -88 -65 -88 -100 0 -19 -7 -33
-19 -40 -11 -5 -23 -19 -26 -30 -4 -11 -18 -33 -31 -47 -19 -20 -24 -37 -24
-72 0 -25 -1 -66 -3 -91 -2 -25 1 -53 7 -62 7 -13 6 -22 -5 -35 -15 -17 -17
-42 -5 -90 2 -13 1 -23 -4 -23 -12 0 -4 -68 10 -85 6 -7 10 -19 9 -27 -3 -27
1 -47 14 -60 8 -7 16 -31 20 -52 3 -22 10 -42 14 -45 17 -12 14 -41 -4 -41
-25 -1 -67 -39 -87 -78 -42 -82 -12 -286 58 -405 52 -86 118 -157 148 -157 39
0 47 -13 64 -95 32 -157 117 -282 287 -419 26 -21 47 -41 47 -45 0 -7 -10 -21
-47 -68 -13 -16 -33 -24 -69 -28 -28 -3 -61 -8 -74 -10 -13 -3 -42 -7 -65 -10
-193 -28 -229 -36 -260 -55 -19 -12 -35 -26 -35 -31 0 -13 208 -112 323 -153
53 -20 97 -34 97 -31 0 2 18 -2 39 -10 22 -7 56 -16 78 -19 21 -4 45 -8 53
-11 50 -14 206 -28 315 -28 97 0 242 10 254 17 4 3 27 7 52 10 89 12 225 46
262 67 10 5 22 7 27 4 6 -4 10 -2 10 3 0 5 13 12 30 15 38 8 264 115 268 128
2 5 8 7 13 3 5 -3 9 -1 9 4 0 21 -76 55 -145 66 -16 3 -100 14 -185 26 -166
23 -153 18 -210 92 l-21 27 21 11 c52 28 178 153 240 240 30 40 66 122 74 165
3 17 8 44 11 60 4 17 7 38 8 48 1 12 13 19 39 23 70 12 173 142 214 273 21 65
30 229 15 273 -21 63 -64 98 -121 98 -25 0 -30 3 -26 18 3 9 10 37 16 62 7 25
22 63 34 85 17 30 22 52 20 89 -2 27 1 54 6 61 5 6 9 31 10 56 0 65 6 132 14
152 3 9 8 23 10 31 3 8 -6 26 -20 41 -14 15 -24 34 -23 44 5 49 -4 71 -45 115
-24 26 -46 60 -49 75 -3 15 -18 42 -34 59 -15 17 -36 43 -46 57 -10 14 -27 25
-37 25 -11 0 -29 15 -42 34 -30 45 -73 69 -119 68 -23 -1 -39 3 -42 12 -3 8
-23 20 -43 26 -21 7 -47 21 -58 31 -11 11 -30 19 -43 19 -14 0 -42 14 -63 31
-41 33 -82 39 -133 20 -24 -9 -33 -7 -57 11 -45 33 -124 35 -175 6z"/>
</g>
</svg>
